<svg width="32" height="32" viewBox="0 0 32 32" fill="none" xmlns="http://www.w3.org/2000/svg">
<path fill-rule="evenodd" clip-rule="evenodd" d="M3.5 3.5H28.5V28.5H3.5V3.5ZM0 0H3.5H28.5H32V3.5V28.5V32H28.5H3.5H0V28.5V3.5V0ZM14.3588 10.504C14.7908 10.92 15.3028 11.128 15.8948 11.128C16.5028 11.128 17.0148 10.92 17.4308 10.504C17.8468 10.072 18.0548 9.56 18.0548 8.968C18.0548 8.36 17.8468 7.848 17.4308 7.432C17.0148 7.016 16.5028 6.808 15.8948 6.808C15.3028 6.808 14.7908 7.016 14.3588 7.432C13.9428 7.848 13.7348 8.36 13.7348 8.968C13.7348 9.56 13.9428 10.072 14.3588 10.504ZM14.0468 15.88V25H17.7188V13.096H11.7908V15.88H14.0468Z" fill="#3E4E48"/>
</svg>
