<svg width="48" height="49" viewBox="0 0 48 49" fill="none" xmlns="http://www.w3.org/2000/svg">
<path fill-rule="evenodd" clip-rule="evenodd" d="M27.564 48.2595C26.831 47.8929 26.664 47.3326 26.5196 44.7554C26.4056 42.7213 26.2694 42.2733 25.5356 41.518L24.9994 40.9662L26.7114 39.3825C27.653 38.5115 28.628 37.62 28.8782 37.4014C28.9271 37.3587 28.9736 37.3222 29.016 37.2891C29.1107 37.2149 29.1847 37.157 29.2181 37.0812C29.2601 36.986 29.2379 36.8624 29.1121 36.6429C28.6039 36.0015 28.0598 35.3141 27.4768 34.5777C26.8659 33.8061 26.2124 32.9806 25.5131 32.0977C24.4247 30.7235 23.5091 29.5959 23.4784 29.5919C23.4476 29.5879 22.768 30.1728 21.9681 30.8918C20.0038 32.6573 17.95 34.3908 15.8746 36.043L18.2286 38.3316L20.6618 40.6971L20.2126 41.039C19.6099 41.4978 19.4769 41.4757 18.8322 40.8099C18.2523 40.211 18.0515 40.1431 17.5795 40.3864L17.2933 40.534L16.9942 39.4455C16.6218 38.0898 16.5834 38.0584 15.2965 38.0584C14.1073 38.0584 13.9037 38.2001 13.7147 39.1593C13.4818 40.3416 13.1889 40.736 12.4724 40.8318C11.6793 40.9379 10.8736 40.2789 10.9697 39.7673C7.45745 42.3051 4.03693 44.4964 1.04098 46.0992L0.0032959 46.6544L0.326199 46.2324C0.13715 46.3203 0.0237522 46.3572 0.000557812 46.3341C-0.0682154 46.2655 6.23845 38.1677 9.99072 33.4839L9.73256 33.0354C9.2103 32.0206 7.39878 32.1595 5.33903 33.3724C3.45276 34.483 2.82633 34.4993 2.34841 33.4502C2.08255 32.8666 2.10059 32.525 2.41707 32.15C2.71651 31.7953 2.83652 31.7558 4.94306 31.3196C7.02911 30.8877 7.55632 30.4402 7.26441 29.3496C6.8768 27.9014 5.45649 26.6522 4.08642 26.5545L3.36619 26.5031L4.6318 26.0638C6.70928 25.3426 7.3061 24.5965 6.79016 23.3655C6.50767 22.6915 6.2718 22.6285 3.7366 22.5508C1.56204 22.484 1.46437 22.472 1.27756 22.249L1.08303 22.0168L2.42324 21.9568C4.33628 21.8713 5.48198 21.3517 5.48198 20.5697C5.48198 19.5988 4.88791 18.5075 4.15538 18.1327C2.5384 17.3053 2.49543 15.4771 4.09289 15.4738C6.84108 15.4683 6.93679 15.4562 7.30555 15.0664C8.37142 13.9397 7.64707 12.9097 4.45178 11.0085C1.47832 9.2392 0.598754 8.06702 1.47005 7.03476C2.27664 6.07916 3.52479 6.73958 5.99087 9.42683C7.48977 11.0601 8.4788 11.8521 9.15669 11.9617C9.35926 11.9945 9.47921 12.0114 9.50281 11.9612C9.15049 11.5158 8.81286 11.0888 8.49588 10.6877C7.4353 9.34575 6.202 7.78655 5.75522 7.22286C5.26005 6.59813 5.02571 6.2706 4.97432 5.98798C4.85059 5.77539 4.80336 5.64538 4.81913 5.57974C5.13742 4.25512 7.65875 2.21524 9.16838 2.06099L9.70018 2.00665L10.6319 3.17535C11.4948 4.25778 11.5712 4.32701 11.6669 4.11316C11.9314 3.52223 13.3205 3.13995 14.0439 3.45898C14.6502 3.72632 14.8413 4.0541 15.3654 5.72513C16.0398 7.87542 16.3229 8.14258 17.2103 7.46603C17.4906 7.25233 17.9875 6.87427 18.3146 6.6259C19.017 6.0925 19.3275 5.7238 19.4067 5.32893C19.4876 4.92549 19.5851 4.95927 20.3217 5.64618C22.5301 7.70568 23.8169 7.8452 23.5032 5.99115C23.3032 4.80959 23.6079 4.41767 24.7261 4.41767C25.8149 4.41767 26.0494 4.78387 25.735 5.99328C25.4327 7.15647 26.0251 7.81364 27.7289 8.20496C28.1242 8.29576 28.7018 8.46431 29.0124 8.57951L29.5772 8.78897L29.8159 8.49821C29.9472 8.33829 30.0563 8.16859 30.0583 8.1211C30.0603 8.07361 30.2274 8.13665 30.4296 8.26117C31.1413 8.69967 31.5812 7.90559 31.5236 6.2866C31.4275 3.58974 31.5022 3.30173 32.4124 2.85869C34.555 1.81574 35.6686 3.84514 34.3294 6.35229L33.6871 7.55483L34.2441 7.47965C37.4201 7.05096 39.693 5.40981 41.2702 2.40642C41.5063 1.95695 41.7241 1.62989 41.7544 1.67961C41.8029 1.7593 41.9307 2.22911 42.0726 2.81072C42.1343 3.03521 42.192 3.25832 42.2456 3.47993C42.4581 4.32103 42.6048 5.15566 42.6866 5.97307C42.8398 7.3818 42.8119 8.7026 42.6097 9.90127C42.612 9.92787 42.6169 9.93081 42.6244 9.90561C42.6841 9.70663 43.3904 9.50531 44.0288 9.50531C44.4075 9.50531 44.5234 9.564 44.8776 9.93515L45.2878 10.365L44.9715 10.5646C44.7042 10.7333 44.5939 10.7473 44.2588 10.6545C44.0407 10.5941 43.5286 10.5445 43.1207 10.5442L42.4819 10.5438C41.9973 12.6493 40.9361 14.3268 39.3407 15.3681C39.1976 15.4615 39.0551 15.5521 38.9135 15.6397C38.2604 16.0747 37.544 16.4568 36.8257 16.7589C37.0263 16.7959 37.3417 16.897 37.6132 17.0154C38.121 17.2367 38.401 17.2882 39.1078 17.2902C41.0345 17.2957 41.1795 18.2717 39.5183 20.0548C37.7131 21.9925 38.0363 24.0523 40.2733 24.8655C40.6147 24.9895 40.894 25.1303 40.894 25.1782C40.894 25.3385 41.2061 25.3871 41.4691 25.2676C41.6879 25.1682 41.7663 25.183 41.9626 25.3607C42.1476 25.5282 42.3037 25.5641 42.7167 25.5341C46.1121 25.2869 47.7322 25.9119 47.1035 27.2264C46.6216 28.2337 45.8442 28.1846 41.5189 26.8738C38.6471 26.0035 37.521 26.7323 38.6811 28.7104C39.4221 29.9738 40.4676 30.7691 42.248 31.4235C42.7611 31.6122 42.8619 31.6791 42.6646 31.7C41.4095 31.833 39.9591 32.082 39.4637 32.2497C34.4719 33.9389 34.5375 35.3136 39.7359 37.9554C42.193 39.2041 42.6147 39.5049 42.7243 40.0873C42.9944 41.5224 41.7606 42.2684 40.538 41.4092C40.0562 41.0707 39.8843 41.0859 40.2691 41.433C40.3579 41.5131 40.3872 41.6313 40.3664 41.7771C40.5224 42.0126 40.5436 42.1008 40.5165 42.17C40.507 42.1942 40.4917 42.2161 40.4742 42.2411C40.4581 42.264 40.4401 42.2896 40.4232 42.3221C40.0757 42.9869 37.8968 44.8749 37.0886 45.2115C37.0301 45.2359 36.9782 45.2622 36.9296 45.2868C36.8533 45.3254 36.7854 45.3598 36.7135 45.3759C36.2524 45.4787 35.6237 44.8295 31.5581 39.7248C30.9926 39.7094 28.8211 41.3882 28.4275 42.1469C28.2091 42.568 28.2345 43.1012 28.5024 43.7187C29.0612 45.0061 29.6454 46.7201 29.6451 47.0707C29.6439 48.1012 28.5252 48.7402 27.564 48.2595ZM30.1149 14.787C30.1835 14.9112 30.2612 15.0374 30.3466 15.1639C30.5941 15.6112 30.9196 16.0054 31.305 16.3287C31.7102 16.7428 32.128 17.0551 32.5659 17.2726C33.339 17.6567 34.5036 17.5887 35.8879 17.1168C35.8998 17.3586 35.8061 17.8782 35.6215 18.9027C35.5603 19.2422 35.4891 19.6372 35.4084 20.0959C33.9103 28.615 33.3631 31.8008 33.3534 32.0585C33.3391 32.4417 33.3087 32.4068 31.7879 30.2595C30.3895 28.2851 30.3408 28.2483 29.6856 28.6723L29.6551 28.692C29.3029 28.9198 29.0745 29.0675 29.0033 29.2704C28.9474 29.4299 28.9886 29.6235 29.1433 29.9169C29.2706 30.2892 29.7039 30.8932 30.5761 32.1088C30.613 32.1603 30.6507 32.2129 30.6892 32.2665C31.207 32.9885 31.6417 33.5943 32.0076 34.1028C32.0067 34.1736 31.9698 34.2741 31.9119 34.3531C31.7185 34.6166 28.8726 30.6459 28.4325 29.5949C28.6384 29.268 29.3687 28.5773 29.7415 28.3882C29.9364 28.2893 30.1116 28.1947 30.1309 28.178C30.1364 28.1732 30.1005 28.1142 30.0319 28.0133L30.1616 27.9682L29.0136 26.4583L28.0682 25.215C28.1803 25.0352 28.4769 24.6851 28.9122 24.2196L29.2827 23.8408C30.5959 22.4983 31.3717 21.4241 31.8096 20.3041C31.9805 19.9244 32.0837 19.5904 32.1083 19.3235L32.2125 18.8887L32.0495 18.7948C31.9674 18.5571 31.6942 18.3799 31.1591 18.0564C29.9944 17.352 29.9935 17.3512 29.0439 16.1244C28.9711 16.0305 28.9053 15.9443 28.8451 15.8656C28.5042 15.4197 28.3464 15.2134 28.1566 15.1778C27.9931 15.1471 27.8059 15.243 27.4573 15.4216C27.3859 15.4582 27.3077 15.4983 27.2216 15.5414C26.0219 16.1425 25.2978 16.6546 24.1415 17.7199C23.5909 18.2272 23.112 18.6423 23.0773 18.6423C22.9897 18.6423 16.8019 10.8972 16.814 10.8027C16.8194 10.7606 17.2832 10.5283 17.8447 10.2865C18.8257 9.86412 20.4051 9.08292 21.834 8.31342C22.8947 7.74217 22.981 7.76033 25.6924 9.12505C27.4954 10.0326 29.3594 10.8659 30.132 11.1099C30.1418 11.113 30.0601 11.4892 29.9505 11.9458C29.8066 12.5453 29.781 13.127 29.8548 13.6721L29.8039 14.3306L30.1149 14.787ZM18.5267 23.3369C18.1562 22.8825 13.5618 17.0908 10.0466 12.6486C9.85199 12.6908 9.5441 13.1034 9.54552 13.3911C9.54639 13.5667 10.1766 17.4702 10.9459 22.0655L12.4864 30.4259C14.1264 28.4562 16.3757 25.8003 17.5489 24.4568L18.5267 23.3369ZM41.0567 47.24C41.0588 47.2265 41.059 47.191 41.0573 47.1364C41.0597 47.1341 41.0618 47.1316 41.0637 47.129C41.0854 47.0984 41.0736 47.0439 41.0581 46.9727L41.0558 46.9618C41.0532 46.9501 41.0501 46.9308 41.0465 46.9046C41.0234 46.4949 40.9688 45.7627 40.9005 44.965L40.7194 42.8503L40.6812 42.8992C40.6534 42.6875 40.6266 42.6015 40.5897 42.5969C40.552 42.5921 40.5036 42.672 40.4326 42.7894C40.417 42.8151 40.4004 42.8427 40.3825 42.8716C39.864 43.7079 38.2483 44.9489 36.9883 45.4787L36.5716 45.6538L36.9974 45.8054L36.789 45.9159L38.9104 46.6581C40.6202 47.2562 41.0367 47.3692 41.0567 47.24ZM8.42519 44.9418C8.07501 44.8745 7.58185 44.3273 7.50546 43.9214C7.31662 42.9179 8.43588 41.7894 9.11991 42.2935C9.29121 42.4198 9.51657 42.5231 9.62071 42.5231C10.1219 42.5231 10.6454 43.2567 10.5523 43.8286C10.4012 44.7567 9.61173 45.1699 8.42519 44.9418ZM4.56807 3.32141C4.04736 2.04204 4.07954 1.84479 4.93092 1.09771C5.98374 0.173852 6.33352 0.187683 7.56805 1.20199C8.36513 1.85689 8.48407 1.96129 8.2506 2.03999C8.29413 2.09552 8.31175 2.13979 8.30422 2.17927C8.28685 2.27041 8.13548 2.33601 7.85965 2.45554C7.80301 2.48008 7.74113 2.5069 7.67409 2.53668C7.14571 2.77136 6.74795 3.06654 6.05336 3.73943C5.19652 4.5695 5.13079 4.61766 5.04705 4.40591C5.03889 4.41293 5.03411 4.41655 5.03302 4.41648C5.02217 4.41581 4.81294 3.92304 4.56807 3.32141Z" fill="#3E4E48"/>
</svg>
