<svg width="49" height="49" viewBox="0 0 49 49" fill="none" xmlns="http://www.w3.org/2000/svg">
<path fill-rule="evenodd" clip-rule="evenodd" d="M24.6865 0.899933C11.4041 0.899933 0.666626 11.7166 0.666626 25.0983C0.666626 35.795 7.54651 44.8495 17.0907 48.0542C18.284 48.2951 18.7211 47.5335 18.7211 46.8928C18.7211 46.3318 18.6818 44.4089 18.6818 42.4054C12 43.848 10.6086 39.5208 10.6086 39.5208C9.53481 36.7163 7.94378 35.9956 7.94378 35.9956C5.75685 34.5132 8.10308 34.5132 8.10308 34.5132C10.529 34.6735 11.8019 36.9971 11.8019 36.9971C13.949 40.6826 17.4088 39.6413 18.8007 39.0001C18.9994 37.4376 19.6361 36.3559 20.3121 35.7551C14.983 35.1941 9.376 33.111 9.376 23.816C9.376 21.1718 10.3298 19.0085 11.8412 17.326C11.6028 16.7252 10.7674 14.2408 12.0802 10.9157C12.0802 10.9157 14.1083 10.2745 18.6813 13.3996C20.6391 12.8699 22.6582 12.6004 24.6865 12.5981C26.7146 12.5981 28.7821 12.8789 30.6912 13.3996C35.2647 10.2745 37.2928 10.9157 37.2928 10.9157C38.6056 14.2408 37.7697 16.7252 37.5313 17.326C39.0825 19.0085 39.997 21.1718 39.997 23.816C39.997 33.111 34.39 35.1538 29.021 35.7551C29.8962 36.5162 30.6514 37.9583 30.6514 40.2421C30.6514 43.4871 30.612 46.0914 30.612 46.8923C30.612 47.5335 31.0496 48.2951 32.2424 48.0546C41.7866 44.849 48.6665 35.795 48.6665 25.0983C48.7059 11.7166 37.929 0.899933 24.6865 0.899933Z" fill="#3E4E48"/>
</svg>
