<svg width="48" height="47" viewBox="0 0 48 47" fill="none" xmlns="http://www.w3.org/2000/svg">
<path d="M47.2028 18.6865L47.1354 18.514L40.6019 1.46424C40.469 1.13007 40.2336 0.8466 39.9296 0.65449C39.6254 0.465644 39.2705 0.37469 38.9129 0.393908C38.5554 0.413126 38.2123 0.541591 37.9301 0.761957C37.651 0.988651 37.4485 1.29583 37.3502 1.64169L32.9388 15.1376H15.0756L10.6641 1.64169C10.5685 1.29394 10.3655 0.985227 10.0843 0.759458C9.80203 0.539091 9.45897 0.410626 9.1014 0.391408C8.74383 0.37219 8.38898 0.463144 8.08475 0.65199C7.78139 0.844876 7.54622 1.1281 7.41241 1.46174L0.866483 18.504L0.801498 18.6765C-0.139019 21.1337 -0.255111 23.8301 0.470727 26.3591C1.19656 28.8881 2.72498 31.1126 4.82553 32.6972L4.84803 32.7147L4.90801 32.7572L14.8606 40.2099L19.7844 43.9363L22.7837 46.2006C23.1345 46.4669 23.5629 46.6111 24.0034 46.6111C24.4439 46.6111 24.8723 46.4669 25.2231 46.2006L28.2224 43.9363L33.1462 40.2099L43.1588 32.7122L43.1838 32.6922C45.2796 31.1073 46.8045 28.8851 47.5292 26.3596C48.254 23.834 48.1394 21.1414 47.2028 18.6865Z" fill="#3E4E48"/>
</svg>
