<svg width="48" height="33" viewBox="0 0 48 33" fill="none" xmlns="http://www.w3.org/2000/svg">
<path d="M2.45592 0.518253C2.14893 0.566859 1.84361 0.6629 1.57182 0.81703C-0.150516 1.79374 0.0964262 3.63251 0.0555932 5.32209C0.0418453 5.89075 0.0141115 6.45785 0.0141115 7.02919C0.0141115 10.8687 -0.0370998 14.7167 0.0555932 18.5521C0.094399 20.1579 -0.0136506 21.7731 0.0945437 23.3747C0.245016 25.6022 -0.189703 27.9047 1.1693 29.8617C2.95299 32.4303 5.87172 32.4224 8.64464 32.4224C13.1519 32.4224 17.6524 32.3797 22.1588 32.3797C23.6486 32.3797 25.1333 32.337 26.6214 32.337C27.5594 32.337 28.5576 32.433 29.4842 32.2681C31.7302 31.8684 33.6469 30.3418 34.5108 28.1973C34.7891 27.5064 34.9752 26.7991 35.0939 26.0634C35.1265 25.8613 35.0942 25.3338 35.2702 25.211C35.4818 25.0634 35.9693 25.1415 36.2202 25.1172C36.9426 25.0476 37.6576 24.9273 38.3673 24.7741C40.1785 24.3831 41.9318 23.558 43.4193 22.4471C49.6322 17.8074 49.5029 7.36604 43.1667 2.87751C41.7114 1.84653 40.0724 1.09458 38.3252 0.747218C35.6328 0.211932 32.7233 0.499517 29.9894 0.499517H11.4653H5.44503C4.47985 0.499517 3.40919 0.367321 2.45592 0.518253ZM2.79337 3.00057C3.03971 2.90555 3.41552 2.97482 3.67682 2.97482H5.69763H12.4757H30.0736H34.2836C36.1329 2.97482 37.8823 3.00704 39.6303 3.70903C41.0226 4.26815 42.3893 5.18164 43.3588 6.34635C46.1329 9.67917 46.3537 15.0888 43.8031 18.5948C42.219 20.7724 39.6973 22.0627 37.1043 22.5035C36.3492 22.6319 35.5957 22.6919 34.8309 22.6919C34.3127 22.6919 33.7601 22.6123 33.3155 22.9389C32.5517 23.5 32.801 24.8768 32.6722 25.722C32.4133 27.422 31.5242 28.9215 29.9052 29.5863C29.0278 29.9466 28.0955 29.8617 27.1687 29.8617C25.8893 29.8617 24.6168 29.9044 23.3376 29.9044C18.7464 29.9044 14.1621 29.9471 9.57084 29.9471C7.50176 29.9471 4.57008 30.446 3.19014 28.4533C2.17984 26.9945 2.68794 25.0682 2.53297 23.4174C2.39039 21.8986 2.51577 20.3345 2.49786 18.8082C2.459 15.4971 2.45592 12.179 2.45592 8.86433C2.45592 7.39818 2.49802 5.93166 2.49802 4.46853C2.49802 4.08225 2.33395 3.17777 2.79337 3.00057ZM34.031 6.10856C33.4274 6.19717 33.0282 6.59198 32.9202 7.1999C32.8353 7.67812 32.8943 8.20856 32.8943 8.69362V11.5103V17.0584C32.8943 17.7601 32.7359 18.6974 33.3191 19.215C33.7031 19.5559 34.1842 19.5337 34.6625 19.5337C35.5488 19.5337 36.4345 19.5472 37.3148 19.4362C37.8727 19.3658 38.4163 19.114 38.9146 18.8614C42.2539 17.1689 43.4556 12.4276 41.6144 9.16307C40.2894 6.81378 37.9642 6.09028 35.4624 6.09028C34.9943 6.09028 34.4947 6.0405 34.031 6.10856ZM35.3361 17.0584V10.6995V9.16307C35.3361 9.02157 35.2793 8.7093 35.4036 8.60945C35.6023 8.44989 36.3139 8.55124 36.557 8.5837C37.7268 8.73985 38.7202 9.19155 39.3905 10.23C40.4737 11.908 40.1591 14.9133 38.5778 16.1763C37.5909 16.9646 36.5436 17.0584 35.3361 17.0584ZM17.7383 10.9129H17.6541C17.37 10.3579 16.6551 9.92111 16.1385 9.6069C14.1612 8.40429 11.2301 8.3088 9.4868 10.0183C7.86481 11.6088 8.03517 14.3302 8.95022 16.2476C9.55927 17.5237 10.529 18.4992 11.5074 19.4911C12.7509 20.7516 14.0338 21.974 15.3386 23.1686C15.8453 23.6325 16.3594 24.0927 16.8542 24.5697C17.0584 24.7666 17.3477 25.1064 17.6541 25.1086C18.0232 25.1112 18.3794 24.6358 18.6224 24.4007C19.3332 23.7128 20.059 23.0408 20.7695 22.3521C21.8974 21.2588 23.0182 20.1653 24.097 19.0216C25.8507 17.1624 27.4812 15.2063 27.0241 12.4492C26.4261 8.84271 22.199 7.86491 19.4223 9.53024C18.8823 9.85409 18.0211 10.3244 17.7383 10.9129Z" fill="#3E4E48"/>
</svg>
