<svg width="49" height="49" viewBox="0 0 49 49" fill="none" xmlns="http://www.w3.org/2000/svg">
<path fill-rule="evenodd" clip-rule="evenodd" d="M43.0002 48.5H5.66683C2.72131 48.5 0.333496 46.1122 0.333496 43.1667V5.83333C0.333496 2.88781 2.72131 0.5 5.66683 0.5H43.0002C45.9457 0.5 48.3335 2.88781 48.3335 5.83333V43.1667C48.3335 46.1122 45.9457 48.5 43.0002 48.5ZM34.544 41.8333H41.6669V27.2008C41.6669 21.0096 38.1574 18.0161 33.2553 18.0161C28.3509 18.0161 26.287 21.8353 26.287 21.8353V18.7222H19.4225V41.8333H26.287V29.7014C26.287 26.4507 27.7833 24.5163 30.6474 24.5163C33.2801 24.5163 34.544 26.3752 34.544 29.7014V41.8333ZM7.00024 11.4313C7.00024 13.7864 8.89495 15.696 11.2331 15.696C13.5713 15.696 15.4649 13.7864 15.4649 11.4313C15.4649 9.07623 13.5713 7.16666 11.2331 7.16666C8.89495 7.16666 7.00024 9.07623 7.00024 11.4313ZM14.8465 41.8333H7.68861V18.7222H14.8465V41.8333Z" fill="#3E4E48"/>
</svg>
